<?xml version="1.0" standalone="no"?>
<!DOCTYPE svg PUBLIC "-//W3C//DTD SVG 20010904//EN"
 "http://www.w3.org/TR/2001/REC-SVG-20010904/DTD/svg10.dtd">
<svg version="1.0" xmlns="http://www.w3.org/2000/svg"
 width="545.000000pt" height="840.000000pt" viewBox="0 0 545.000000 840.000000"
 preserveAspectRatio="xMidYMid meet">

<g transform="translate(0.000000,840.000000) scale(0.100000,-0.100000)"
fill="#000000" stroke="none">
<path d="M2532 8289 c-272 -35 -553 -184 -757 -401 -540 -574 -535 -1540 14
-2774 l71 -161 -41 -44 c-45 -48 -124 -202 -134 -261 l-7 -37 -45 52 c-25 29
-67 84 -93 124 l-48 72 -5 318 c-5 340 -15 433 -72 654 -52 202 -148 431 -239
568 -114 171 -281 308 -448 367 -34 12 -359 74 -388 74 -7 0 51 -52 127 -116
182 -153 250 -220 257 -254 6 -33 62 -100 82 -100 29 0 53 -37 47 -73 -8 -49
47 -147 83 -147 16 0 36 -57 23 -65 -5 -4 -9 -30 -9 -58 0 -54 26 -112 55
-123 16 -7 21 -49 6 -58 -31 -20 -13 -145 25 -175 23 -18 24 -24 24 -129 0
-60 -3 -123 -6 -140 l-6 -31 -32 24 c-110 83 -390 155 -608 155 -130 0 -158
-17 -192 -117 l-15 -41 40 -16 c26 -11 39 -22 39 -34 0 -46 92 -108 145 -99
38 6 55 -7 55 -41 0 -53 68 -112 128 -112 33 0 59 -24 54 -51 -4 -25 63 -96
104 -109 19 -7 46 -9 59 -6 29 7 75 -9 75 -27 0 -7 -20 -68 -45 -135 -63 -173
-78 -262 -78 -472 1 -198 10 -284 55 -522 l32 -167 -25 -29 c-122 -149 -162
-201 -222 -292 -149 -226 -235 -446 -267 -687 -19 -138 -8 -426 19 -521 76
-263 282 -461 545 -527 41 -10 95 -15 133 -13 l64 3 34 -105 c94 -285 129
-452 123 -581 -4 -82 -7 -92 -75 -235 -40 -82 -87 -187 -107 -234 -19 -47 -42
-102 -50 -122 l-16 -37 123 71 c157 92 194 117 266 183 34 32 65 53 73 50 20
-8 78 34 106 75 16 24 22 45 20 68 -4 29 0 35 21 44 38 14 62 38 82 83 23 50
24 91 2 103 -14 8 -12 12 12 28 36 23 55 70 55 134 0 36 -4 52 -15 56 -21 8
-19 41 5 71 14 18 20 41 20 79 0 64 -16 102 -44 106 -26 4 -33 42 -12 64 38
37 2 177 -48 190 -22 5 -25 12 -33 82 -4 43 -7 156 -6 252 2 263 43 466 134
656 87 183 193 279 502 454 70 39 159 97 198 128 68 54 171 170 212 240 l19
32 51 -72 c100 -144 198 -226 407 -343 255 -142 382 -254 462 -410 118 -230
165 -503 146 -850 -8 -149 -9 -150 -38 -177 -17 -15 -35 -39 -40 -53 -13 -35
-13 -101 1 -127 13 -25 4 -68 -16 -68 -38 0 -54 -134 -22 -184 21 -31 21 -46
2 -82 -8 -16 -15 -38 -14 -49 0 -31 25 -94 45 -116 13 -15 19 -37 19 -77 0
-69 29 -122 80 -146 29 -14 35 -22 35 -47 0 -17 5 -40 11 -52 21 -41 72 -87
97 -87 16 0 48 -22 92 -63 62 -57 356 -245 366 -234 7 7 -89 233 -151 357 -69
138 -85 194 -85 299 0 103 28 235 102 476 l52 171 96 0 c77 0 109 5 168 26
243 87 427 287 488 531 21 87 30 373 15 490 -30 224 -109 443 -231 637 -67
108 -180 260 -237 321 l-45 48 26 84 c79 257 107 687 61 907 -16 77 -90 295
-109 318 -15 21 13 33 61 27 73 -10 170 58 160 112 -6 33 26 58 69 54 30 -2
41 4 80 42 32 33 44 52 44 74 0 36 21 58 37 42 31 -31 146 34 158 89 4 19 15
32 35 39 36 14 37 32 7 93 -30 62 -69 80 -172 80 -188 0 -400 -44 -535 -112
-47 -24 -88 -44 -92 -46 -5 -2 -8 53 -8 122 0 120 1 126 24 148 14 13 30 36
35 51 16 42 14 113 -4 131 -22 21 -18 43 9 61 45 29 70 130 45 177 -14 26 -3
68 17 68 43 0 107 117 85 158 -12 23 3 42 52 64 39 19 74 64 84 111 6 31 47
70 246 236 75 63 135 116 134 118 -2 1 -90 -12 -196 -31 -167 -30 -203 -40
-274 -75 -206 -102 -367 -284 -487 -551 -143 -316 -200 -626 -200 -1079 l0
-194 -31 -56 c-38 -67 -126 -187 -161 -219 l-25 -23 -5 44 c-7 62 -69 185
-124 246 l-46 52 20 47 c11 26 48 110 82 187 421 957 498 1790 220 2357 -202
412 -573 689 -1003 747 -89 12 -262 12 -355 0z m409 -105 c290 -55 577 -254
759 -526 250 -374 311 -874 180 -1491 -32 -151 -103 -409 -121 -435 -8 -14 -9
-12 -5 8 26 126 40 309 40 545 1 277 -7 368 -51 564 -74 338 -232 602 -449
752 -77 52 -226 118 -327 144 -166 42 -413 50 -563 19 -25 -5 -36 -1 -56 19
-103 103 -279 91 -383 -25 -61 -67 -89 -139 -93 -241 -4 -82 -7 -93 -44 -155
-99 -162 -160 -355 -200 -627 -8 -58 -13 -188 -12 -365 0 -226 4 -305 23 -443
12 -93 20 -176 18 -185 -9 -40 -112 345 -146 548 -75 441 -48 834 79 1137 177
424 556 723 980 773 96 11 267 4 371 -16z m-2099 -2810 c102 -36 126 -53 269
-181 154 -139 212 -209 319 -383 100 -162 157 -237 253 -326 69 -64 267 -204
290 -204 6 0 8 -3 5 -6 -8 -7 -191 79 -285 134 -108 63 -218 173 -283 282 -75
124 -144 225 -212 308 -86 105 -329 332 -395 369 -70 40 -58 42 39 7z m3786
-7 c-137 -78 -445 -398 -540 -562 -161 -275 -242 -352 -522 -486 -119 -57
-143 -63 -62 -14 221 133 336 250 490 500 109 177 169 248 325 389 127 114
189 154 291 187 79 26 82 23 18 -14z m-2553 -1558 c-124 -80 -133 -82 -357
-86 -220 -3 -295 -14 -412 -63 -258 -107 -521 -389 -694 -740 -109 -222 -142
-358 -150 -630 -7 -224 -21 -169 -21 85 -1 321 50 518 198 767 179 300 384
511 596 613 165 80 218 86 645 76 131 -3 174 -1 210 12 72 24 70 20 -15 -34z
m1295 26 c52 -12 100 -12 255 -4 297 17 413 1 573 -80 146 -73 265 -174 392
-332 151 -188 282 -411 334 -569 52 -158 61 -228 61 -475 0 -156 -4 -236 -12
-250 -8 -15 -10 9 -6 105 14 347 -92 658 -336 987 -167 226 -339 373 -523 446
-120 49 -188 59 -377 58 -210 -1 -260 10 -374 81 -89 55 -102 65 -72 54 11 -4
49 -14 85 -21z m-1256 -322 c-15 -83 -33 -109 -132 -189 -276 -226 -345 -286
-432 -374 -52 -53 -112 -125 -133 -161 -79 -136 -151 -359 -183 -570 -18 -120
-20 -388 -5 -494 6 -38 10 -113 10 -165 l0 -95 -19 53 c-60 167 -87 486 -61
711 24 200 93 432 179 595 56 108 252 296 607 583 55 45 116 95 135 112 19 16
36 30 38 31 2 0 0 -17 -4 -37z m1241 7 c3 -5 74 -65 156 -131 195 -158 407
-347 488 -435 94 -103 172 -270 225 -482 44 -177 51 -238 51 -457 0 -221 -17
-349 -64 -485 l-18 -55 -7 60 c-4 37 -1 100 8 165 52 356 -15 774 -171 1074
-49 93 -210 255 -433 436 -251 203 -255 208 -275 308 -7 32 -6 33 13 23 12 -6
24 -16 27 -21z m-1615 -154 c-8 -7 -78 -67 -155 -133 -226 -193 -294 -274
-370 -436 -77 -166 -132 -365 -156 -571 -11 -95 -7 -381 7 -483 l6 -42 -41 22
c-27 14 -41 29 -41 42 0 45 -76 105 -132 105 -33 0 -53 36 -50 90 3 52 -30
119 -66 135 -25 11 -28 32 -7 59 22 29 19 112 -7 164 -13 29 -18 49 -12 57 41
55 48 73 52 125 3 35 0 60 -7 64 -18 11 9 56 34 56 48 0 99 79 100 154 0 48 1
50 35 59 71 18 140 99 125 147 -5 17 -2 20 22 20 58 0 143 75 143 125 0 40
205 154 385 214 131 45 159 50 135 27z m2054 -17 c188 -58 416 -182 416 -225
0 -53 82 -124 143 -124 24 0 27 -3 21 -25 -12 -48 54 -123 126 -143 34 -8 35
-11 32 -50 -4 -70 53 -162 101 -162 27 0 55 -44 36 -56 -7 -4 -10 -29 -7 -64
4 -52 10 -69 53 -126 6 -9 2 -25 -13 -52 -26 -47 -30 -137 -7 -168 21 -27 18
-48 -7 -59 -39 -18 -61 -61 -66 -127 -5 -67 -22 -98 -54 -98 -50 0 -128 -61
-128 -100 0 -21 -9 -30 -43 -47 l-42 -20 12 91 c44 334 -19 726 -165 1025 -74
153 -168 256 -435 479 -53 45 -91 82 -84 82 7 0 57 -14 111 -31z"/>
</g>
</svg>
